<svg width="50" height="50" viewBox="0 0 50 50" fill="none" xmlns="http://www.w3.org/2000/svg">
<path d="M27.0834 41.5C30.8334 41.0417 34.0626 39.4792 36.7709 36.7708C39.4792 34.0625 41.0418 30.8333 41.5001 27.0833H35.2501C34.7918 29.1667 33.8334 30.9167 32.3751 32.375C30.9168 33.8333 29.1667 34.7917 27.0834 35.25V41.5ZM20.8334 16.6667H29.1667L35.4168 22.9167H41.5001C40.9793 18.8542 39.1459 15.375 35.9793 12.5C32.8334 9.70833 29.1667 8.33333 25.0001 8.33333C20.8334 8.33333 17.1667 9.70833 14.0209 12.5C10.8542 15.375 9.02091 18.8542 8.50008 22.9167H14.5834L20.8334 16.6667ZM22.9167 41.5V35.25C20.8334 34.7917 19.0834 33.8333 17.6251 32.375C16.1667 30.9167 15.2084 29.1667 14.7501 27.0833H8.50008C8.95841 30.7708 10.5209 33.9583 13.2292 36.6667C15.9376 39.375 19.1667 40.9792 22.9167 41.5ZM25.0001 4.16667C30.7293 4.16667 35.6251 6.25 39.6876 10.3125C43.7501 14.375 45.8334 19.2708 45.8334 25C45.8334 30.7292 43.7501 35.625 39.6876 39.6875C35.6251 43.75 30.7293 45.8333 25.0001 45.8333C19.2709 45.8333 14.3751 43.75 10.3126 39.6875C6.25008 35.625 4.16675 30.7292 4.16675 25C4.16675 19.2708 6.25008 14.375 10.3126 10.3125C14.3751 6.25 19.2709 4.16667 25.0001 4.16667Z" fill="black"/>
</svg>
