<svg width="22" height="27" viewBox="0 0 22 27" fill="none" xmlns="http://www.w3.org/2000/svg">
<path d="M11.6245 11.6248H18.4999M15.9997 20.9999L12.2495 26M12.2495 26H5.99915M12.2495 26H18.4999M6.60168 20.9999H18.4649C19.8649 20.9999 21 19.8849 21 18.5087C21 16.6249 18.4649 16.0174 18.4649 16.0174C18.4649 16.0174 13.8546 14.2449 8.49929 15.9999C8.49929 15.9999 8.32553 9.59107 5.63663 2.46224C5.10535 1.05722 3.37525 0.577217 2.10517 1.40848C1.69738 1.67305 1.3785 2.05406 1.18992 2.50208C1.00134 2.95011 0.951762 3.44446 1.04761 3.921L4.11529 18.9962C4.2354 19.5655 4.54845 20.0759 5.0015 20.441C5.45456 20.8061 6.01982 21.0035 6.60168 20.9999Z" stroke="black" stroke-width="1.5" stroke-linecap="round" stroke-linejoin="round"/>
</svg>
